<svg width="50" height="50" viewBox="0 0 50 50" fill="none" xmlns="http://www.w3.org/2000/svg">
<path d="M24.9803 50H25C38.7904 50 49.9803 38.8101 49.9803 25.0197V25C50 11.1899 38.7904 0 25 0C11.1899 0 0 11.1899 0 25V25.0197C0 38.8101 11.1899 50 24.9803 50Z" fill="#6B99DD"/>
<path d="M27.3444 40.8589V27.0094H31.9937L32.6832 21.6115H27.3444V18.1639C27.3444 16.6076 27.7778 15.5437 30.0236 15.5437H32.8802V10.6974C32.3877 10.6383 30.6934 10.4807 28.7234 10.4807C24.606 10.4807 21.7888 13.0024 21.7888 17.6123V21.5918H17.1001V26.9897H21.7691V40.8392H27.3444V40.8589Z" fill="white"/>
</svg>
