<svg width="50" height="50" viewBox="0 0 50 50" fill="none" xmlns="http://www.w3.org/2000/svg">
<g clip-path="url(#clip0)">
<path d="M25 0C11.1899 0 0 11.1899 0 25C0 38.7904 11.1899 49.9803 24.9803 49.9803H25C38.7904 49.9803 49.9803 38.7904 49.9803 25C50 11.1899 38.7904 0 25 0Z" fill="#6B99DD"/>
<path d="M35.4413 14.7557L11.7021 23.7391C10.4019 24.1134 10.4413 25.394 11.4066 25.7092L17.3562 27.561L19.6414 34.535C19.9172 35.3033 20.1537 35.5792 20.6265 35.5989C21.119 35.5989 21.316 35.4216 21.8282 34.9684C22.4389 34.3971 23.3451 33.5106 24.803 32.0922L30.989 36.6627C32.1316 37.2931 32.959 36.9582 33.2348 35.5989L37.1158 16.4105C37.5098 14.7557 36.5445 14.2632 35.4413 14.7557ZM18.2821 27.1473L31.7967 18.6564C32.4665 18.2033 32.6635 18.7155 32.368 19.0504L21.1387 29.1371L20.5674 34.1804L18.2821 27.1473Z" fill="white"/>
</g>
<defs>
<clipPath id="clip0">
<rect width="50" height="49.9803" fill="white"/>
</clipPath>
</defs>
</svg>
