<svg width="50" height="50" viewBox="0 0 50 50" fill="none" xmlns="http://www.w3.org/2000/svg">
<g clip-path="url(#clip0)">
<path d="M25 0C11.1899 0 0 11.1899 0 25C0 38.7904 11.1899 49.9803 24.9803 49.9803H25C38.7904 49.9803 49.9803 38.7904 49.9803 25C50 11.1899 38.7904 0 25 0Z" fill="#6B99DD"/>
<path d="M33.9835 15.0906C33.0181 14.2632 31.8755 13.7707 30.6738 13.4555C27.6202 12.6478 24.5272 12.4508 21.3948 12.8842C19.7991 13.1009 18.2821 13.5146 16.8637 14.3026C15.2088 15.2285 14.0662 16.5682 13.554 18.42C13.1994 19.74 13.0221 21.0993 12.9433 22.4586C12.8448 24.4681 12.9039 26.4775 13.4161 28.4476C14.0071 30.7132 15.3073 32.3877 17.5335 33.2939C17.7699 33.3924 18.0063 33.5303 18.2427 33.6288C18.4594 33.7273 18.5382 33.8653 18.5382 34.1017C18.5185 35.6777 18.5382 37.2537 18.5382 38.8889C19.1292 38.3176 19.5233 37.9039 19.8188 37.5887C20.6856 36.6036 21.513 35.7762 22.4389 34.8306C22.8921 34.3578 22.7147 34.3775 23.424 34.3972C24.2711 34.4169 25.591 34.4366 26.4382 34.3775C28.0339 34.2593 29.6296 34.0426 31.1663 33.5894C33.1363 32.9984 34.6927 31.9543 35.5004 29.9645C35.7171 29.4326 35.9141 28.9007 36.052 28.3491C36.8203 25.197 36.7218 22.0252 36.0717 18.8731C35.7762 17.3956 35.1458 16.0954 33.9835 15.0906ZM24.2317 17.0213C24.2514 16.7258 24.4287 16.6076 24.7045 16.6076C27.1474 16.7258 28.9795 17.4547 30.3783 19.3459C31.2057 20.4492 31.6588 21.9661 31.6982 23.3649C31.6982 23.5816 31.6982 23.7786 31.6982 23.9953C31.6785 24.2317 31.58 24.409 31.3239 24.409C31.0678 24.409 30.9299 24.2711 30.9102 23.9953C30.8511 22.9708 30.6344 21.9661 30.2404 21.0008C29.472 19.1489 28.0142 18.1442 26.1426 17.6714C25.6501 17.5532 25.1379 17.435 24.6257 17.3956C24.409 17.3759 24.212 17.3168 24.2317 17.0213ZM26.6746 19.6021C26.182 19.4247 25.6698 19.2868 25.1576 19.208C24.9015 19.1686 24.7242 19.0307 24.7636 18.7352C24.803 18.4594 24.9803 18.3412 25.2561 18.3806C26.9504 18.5382 28.29 19.1686 29.1962 20.6265C29.6296 21.316 29.866 22.301 29.8463 23.0299C29.8266 23.5422 29.7478 23.6801 29.4523 23.6801C29.0189 23.6604 29.078 23.3058 29.0583 23.0496C28.9992 22.6556 28.9204 22.2616 28.8022 21.8676C28.487 20.7447 27.7778 19.9764 26.6746 19.6021ZM28.1127 22.4586C28.093 22.5965 28.093 22.695 28.0733 22.7935C28.0339 22.9905 27.9157 23.0891 27.699 23.1088C27.4823 23.1088 27.3838 22.9905 27.3247 22.8132C27.2853 22.695 27.2853 22.5571 27.2459 22.4192C27.108 21.7297 26.714 21.2766 26.0441 21.0993C25.9653 21.0796 25.8668 21.0599 25.788 21.0402C25.5713 20.9811 25.3152 20.9811 25.2955 20.6659C25.2955 20.4098 25.4925 20.2522 25.8471 20.2325C26.0835 20.2128 26.4579 20.331 26.6746 20.4492C27.6005 20.8826 28.0142 21.4933 28.1127 22.4586ZM31.6982 29.6887C31.2254 30.7526 30.4177 31.4618 29.2947 31.777C28.881 31.8952 28.487 31.7967 28.1127 31.6391C22.9512 29.4523 19.2278 25.8274 17.1198 20.5871C16.9622 20.2128 16.8834 19.8188 16.8834 19.4642C16.8834 18.1245 18.0654 16.8637 19.3657 16.8046C19.7203 16.7849 20.0355 16.9031 20.2916 17.1395C21.1978 17.9866 21.9267 18.9716 22.4586 20.1143C22.7542 20.725 22.6359 21.1584 22.104 21.5918C22.0252 21.6706 21.9267 21.7297 21.8479 21.7888C21.1584 22.301 21.0008 22.8132 21.3357 23.621C21.8873 24.9409 22.7739 25.9653 23.9559 26.714C24.409 27.0095 24.8621 27.2656 25.394 27.4232C25.8668 27.5611 26.2608 27.4232 26.5564 27.0292C26.5958 26.9898 26.6155 26.9504 26.6549 26.8913C27.3247 25.9653 28.0339 25.8077 28.9992 26.4184C29.8266 26.9307 30.595 27.5217 31.3436 28.1521C31.8361 28.5855 31.974 29.0977 31.6982 29.6887Z" fill="white"/>
</g>
<defs>
<clipPath id="clip0">
<rect width="50" height="49.9803" fill="white"/>
</clipPath>
</defs>
</svg>
