<svg width="50" height="50" viewBox="0 0 50 50" fill="none" xmlns="http://www.w3.org/2000/svg">
<path d="M24.9901 50H25.0098C38.8057 50 50 38.8101 50 25.0197V25C50.0197 11.1899 38.8057 0 25.0098 0C11.1943 0 0 11.1899 0 25V25.0197C0 38.8101 11.1943 50 24.9901 50Z" fill="#6B99DD"/>
<path fill-rule="evenodd" clip-rule="evenodd" d="M24.0639 34.8306H25.9559C25.9559 34.8306 26.5274 34.7715 26.823 34.4563C27.099 34.1608 27.0793 33.6289 27.0793 33.6289C27.0793 33.6289 27.0398 31.0875 28.2223 30.7132C29.3851 30.3389 30.883 33.1758 32.4596 34.2593C33.6618 35.0867 34.5684 34.9094 34.5684 34.9094L38.8057 34.8503C38.8057 34.8503 41.013 34.7124 39.9685 32.9787C39.8897 32.8408 39.3575 31.6982 36.8152 29.3341C34.1545 26.8716 34.5093 27.2656 37.7217 23.0103C39.6729 20.4098 40.4415 18.8338 40.205 18.1442C39.9685 17.4941 38.5495 17.6714 38.5495 17.6714L33.7801 17.7108C33.7801 17.7108 33.4253 17.6714 33.1691 17.829C32.9129 17.9866 32.7552 18.3412 32.7552 18.3412C32.7552 18.3412 32.0063 20.3507 31.0012 22.0646C28.8727 25.6698 28.0253 25.8668 27.6902 25.6304C26.8822 25.1182 27.0793 23.5422 27.0793 22.4193C27.0793 18.9323 27.6114 17.4744 26.0544 17.1001C25.542 16.9819 25.1478 16.8834 23.8274 16.8834C22.1325 16.8637 20.6938 16.8834 19.866 17.2971C19.3142 17.5532 18.9003 18.1639 19.1565 18.1836C19.4718 18.223 20.1813 18.3806 20.5558 18.8929C21.0485 19.5627 21.0288 21.0402 21.0288 21.0402C21.0288 21.0402 21.3047 25.1576 20.3784 25.6698C19.7281 26.0245 18.8609 25.2955 16.9689 22.0252C16.0032 20.3507 15.274 18.4988 15.274 18.4988C15.274 18.4988 15.136 18.1442 14.8798 17.9669C14.5842 17.7502 14.1506 17.6714 14.1506 17.6714L9.61769 17.6911C9.61769 17.6911 8.9279 17.7108 8.6914 18.0063C8.47461 18.2624 8.67169 18.8141 8.67169 18.8141C8.67169 18.8141 12.2192 27.108 16.2397 31.2845C19.8857 35.0867 24.0639 34.8306 24.0639 34.8306Z" fill="white"/>
</svg>
